# xmcd
#
# Track frame offsets: 
#        150
#        15690
#        29655
#        44177
#        58565
#        73172
#        88302
#        104460
#        118320
#        134260
#        148632
#        164955
#        177837
#        190910
#        203442
#        216857
#        233010
#        247835
#        262440
#        277382
#        291817
#        304032
#        318072
#        331240
#
# Disc length: 4612 seconds
#
# Revision: 0
# Processed by: cddbd v1.5.1PL0 Copyright (c) Steve Scherf et al.
# Submitted via: ExactAudioCopy v0.95a5
#
DISCID=82120218
DTITLE=Various Artist - Georgia Blues and Gospel (1927-1931)
DYEAR=1993
DGENRE=Blues
TTITLE0=JULIUS DANIELS -- My Mamma Was A Sailor
TTITLE1=JULIUS DANIELS -- Ninety-Nine Year Blues (take 1)
TTITLE2=JULIUS DANIELS -- Ninety-Nine Year Blues (take 2)
TTITLE3=JULIUS DANIELS -- I'm Goin' To Tell God How You Doin'
TTITLE4=JULIUS DANIELS -- Slippin' And Slidin' Up The Golden Street (t
TTITLE4=ake 2)
TTITLE5=JULIUS DANIELS -- Slippin' And Slidin' Up The Golden Street (t
TTITLE5=ake 3)
TTITLE6=JULIUS DANIELS -- Can't Put The Bridle On That Mule This Morni
TTITLE6=ng (take1)
TTITLE7=JULIUS DANIELS -- Can't Put The Bridle On That Mule This Morni
TTITLE7=ng (take2)
TTITLE8=JULIUS DANIELS -- Richmond Blues (take1)
TTITLE9=JULIUS DANIELS -- Richmond Blues (take2)
TTITLE10=JULIUS DANIELS -- Crow Jane Blues
TTITLE11=GEORGE CARTER -- Rising River Blues
TTITLE12=GEORGE CARTER -- Hot Jelly Roll Blues
TTITLE13=GEORGE CARTER -- Weeping Willow Blues
TTITLE14=GEORGE CARTER -- Ghost Woman Blues
TTITLE15=LIL' McCLINTOCK -- Furniture Man (take 1)
TTITLE16=LIL' McCLINTOCK -- Furniture Man (take 2)
TTITLE17=LIL' McCLINTOCK -- Don't Think I'm Santa Claus
TTITLE18=LIL' McCLINTOCK -- Sow Good Seeds
TTITLE19=LIL' McCLINTOCK -- Mother Called Her Child To Her Dying Bed
TTITLE20=LILLIE MAE -- Buggy Jail House Blues
TTITLE21=LILLIE MAE -- Wise Like That
TTITLE22=LILLIE MAE -- Mama Don't Want It
TTITLE23=LILLIE MAE -- Bootie Wah Bootie
EXTD=
EXTT0=
EXTT1=
EXTT2=
EXTT3=
EXTT4=
EXTT5=
EXTT6=
EXTT7=
EXTT8=
EXTT9=
EXTT10=
EXTT11=
EXTT12=
EXTT13=
EXTT14=
EXTT15=
EXTT16=
EXTT17=
EXTT18=
EXTT19=
EXTT20=
EXTT21=
EXTT22=
EXTT23=
PLAYORDER=
